<?xml version="1.0" standalone="no"?>
<!DOCTYPE svg PUBLIC "-//W3C//DTD SVG 20010904//EN"
 "http://www.w3.org/TR/2001/REC-SVG-20010904/DTD/svg10.dtd">
<svg version="1.0" xmlns="http://www.w3.org/2000/svg"
 width="300.000000pt" height="300.000000pt" viewBox="0 0 300.000000 300.000000"
 preserveAspectRatio="xMidYMid meet">
<metadata>
Created by potrace 1.10, written by Peter Selinger 2001-2011
</metadata>
<g transform="translate(0.000000,300.000000) scale(0.050000,-0.050000)"
fill="#000000" stroke="none">
<path d="M2880 5146 c-70 -26 -115 -95 -280 -436 -395 -811 -644 -1320 -649
-1326 -3 -3 -123 87 -265 200 -1220 971 -1271 1006 -1385 968 -144 -48 -141
-21 -142 -992 l-1 -870 201 -6 201 -5 0 644 0 644 55 -51 c101 -93 1289 -1019
1336 -1040 53 -24 175 -7 206 30 20 25 445 878 671 1348 l117 245 162 -335
c623 -1285 653 -1333 806 -1292 60 16 791 574 1221 932 90 75 171 136 180 136
9 0 16 -284 16 -630 l0 -630 206 0 207 0 -7 879 -6 878 -58 61 c-130 135 -148
125 -943 -501 -816 -644 -790 -624 -796 -614 -3 4 -74 151 -158 327 -701 1470
-720 1500 -895 1436z m165 -423 c42 -95 34 -124 -26 -87 -56 35 -106 30 -166
-17 -70 -55 -71 -14 -4 120 76 149 125 145 196 -16z m-2538 -508 l74 -65 -91
-84 -90 -85 0 150 c0 169 5 174 107 84z m4973 -77 l0 -143 -78 68 c-43 37 -79
78 -80 91 -2 19 128 126 153 126 3 0 5 -64 5 -142z m-1581 -973 c1 -41 -32
-29 -67 24 -17 27 -32 55 -32 61 0 24 99 -61 99 -85z"/>
<path d="M2066 2319 c-81 -31 -90 -81 -83 -479 8 -406 22 -460 126 -460 134 0
194 252 152 632 -31 272 -79 349 -195 307z"/>
<path d="M3697 2302 c-86 -71 -59 -697 35 -791 173 -174 320 269 212 641 -50
172 -147 231 -247 150z"/>
<path d="M3223 1229 c-168 -91 -334 -97 -494 -16 -206 104 -311 -89 -117 -213
283 -179 888 -62 888 172 0 137 -94 156 -277 57z"/>
</g>
</svg>
